<svg width="current" height="current" viewBox="0 0 30 30" fill="none" xmlns="http://www.w3.org/2000/svg">
<g clip-path="url(#clip0_26_197)">
<path d="M20.1364 29.5455H9.86368C9.4455 29.5455 9.03641 29.4637 8.61823 29.4455C4.09095 29.2182 1.16368 26.5182 0.627317 22.0091C0.545499 21.3637 0.509135 20.7637 0.45459 20.1364V9.86368C0.45459 9.4455 0.536408 9.03641 0.55459 8.63641C0.781863 4.09095 3.49095 1.16368 8.00004 0.627317C8.63641 0.545499 9.23641 0.509135 9.86368 0.45459H20.1364C20.5546 0.45459 20.9637 0.536408 21.3819 0.55459C25.9273 0.781863 28.8364 3.48186 29.3728 7.99095C29.4455 8.60914 29.491 9.23641 29.5455 9.86368V20.1364C29.5455 20.5546 29.4637 20.9637 29.4455 21.3819C29.2182 25.9273 26.5182 28.8364 22.0091 29.3728C21.3637 29.4546 20.7637 29.491 20.1364 29.5455ZM26.8182 15C26.8182 12.9364 26.891 10.8637 26.8182 8.80005C26.6819 5.5455 25 3.52732 22.0273 3.26368C17.4795 2.93602 12.9151 2.90869 8.36368 3.18186H7.98186C6.88288 3.26963 5.84306 3.71559 5.02196 4.45129C4.20086 5.18699 3.64385 6.1718 3.43641 7.25459C3.28215 7.89517 3.19682 8.55041 3.18186 9.20914C3.12732 12.0819 3.09095 14.9546 3.10004 17.8364C3.09107 19.2236 3.15479 20.6104 3.29095 21.991C3.3371 23.1618 3.80364 24.2768 4.60506 25.1317C5.40649 25.9866 6.48913 26.524 7.65459 26.6455C9.09418 26.844 10.5471 26.9291 12 26.9C15.0091 26.9 18.0091 26.9 21.0091 26.8182C24.7546 26.7 26.7091 24.7364 26.8273 20.9819C26.8819 19 26.8182 17.0091 26.8182 15Z" fill="white"/>
<path d="M22.4728 15.0001C22.4728 16.478 22.0345 17.9228 21.2134 19.1517C20.3923 20.3806 19.2252 21.3384 17.8598 21.904C16.4943 22.4696 14.9918 22.6176 13.5422 22.3292C12.0927 22.0409 10.7611 21.3292 9.71606 20.2841C8.67098 19.239 7.95927 17.9075 7.67093 16.4579C7.3826 15.0084 7.53058 13.5059 8.09617 12.1404C8.66177 10.7749 9.61957 9.60784 10.8484 8.78673C12.0773 7.96562 13.5221 7.52735 15.0001 7.52735C15.9817 7.52615 16.954 7.71862 17.8612 8.09374C18.7684 8.46886 19.5926 9.01925 20.2868 9.71339C20.9809 10.4075 21.5313 11.2318 21.9064 12.139C22.2815 13.0461 22.474 14.0184 22.4728 15.0001ZM15.0001 19.8455C15.9584 19.8455 16.8952 19.5613 17.6921 19.0289C18.4889 18.4965 19.11 17.7397 19.4767 16.8544C19.8434 15.969 19.9394 14.9947 19.7524 14.0548C19.5655 13.1148 19.104 12.2515 18.4263 11.5738C17.7487 10.8962 16.8853 10.4347 15.9454 10.2477C15.0054 10.0608 14.0312 10.1567 13.1458 10.5235C12.2604 10.8902 11.5037 11.5113 10.9712 12.3081C10.4388 13.1049 10.1546 14.0417 10.1546 15.0001C10.157 16.2844 10.6683 17.5155 11.5765 18.4237C12.4847 19.3319 13.7157 19.8431 15.0001 19.8455Z" fill="white"/>
<path d="M22.7817 5.49094C23.1261 5.49453 23.4618 5.59994 23.7464 5.7939C24.0311 5.98786 24.252 6.2617 24.3813 6.58094C24.5106 6.90018 24.5426 7.25054 24.4732 7.58792C24.4038 7.9253 24.2362 8.23461 23.9914 8.4769C23.7465 8.71919 23.4355 8.88363 23.0974 8.94952C22.7594 9.01541 22.4093 8.9798 22.0915 8.84717C21.7736 8.71454 21.502 8.49083 21.311 8.2042C21.12 7.91757 21.0181 7.58083 21.0181 7.23639C21.0169 7.00529 21.0618 6.77627 21.1502 6.56275C21.2386 6.34923 21.3688 6.15551 21.533 5.99295C21.6973 5.83038 21.8923 5.70224 22.1068 5.61604C22.3212 5.52984 22.5507 5.4873 22.7817 5.49094Z" fill="white"/>
</g>
<defs>
<clipPath id="clip0_26_197">
<rect width="29.0909" height="29.0909" fill="white" transform="translate(0.45459 0.45459)"/>
</clipPath>
</defs>
</svg>
