<svg width="39" height="32" viewBox="0 0 39 32" fill="none" xmlns="http://www.w3.org/2000/svg">
<path d="M2.39102 13.9361C2.39102 13.9361 19.6398 6.91148 25.6219 4.43794C27.9152 3.44861 35.6921 0.282477 35.6921 0.282477C35.6921 0.282477 39.2815 -1.10259 38.9823 2.26128C38.8825 3.64648 38.0849 8.49441 37.2874 13.7382C36.0908 21.1587 34.7947 29.2716 34.7947 29.2716C34.7947 29.2716 34.5953 31.5473 32.9004 31.943C31.2054 32.3387 28.4136 30.5579 27.9152 30.1621C27.5163 29.8653 20.4374 25.413 17.8451 23.2363C17.1471 22.6427 16.3496 21.4555 17.9447 20.0703C21.5341 16.8053 25.8213 12.7489 28.4136 10.1765C29.6101 8.98915 30.8065 6.21888 25.8213 9.58274C18.7424 14.4308 11.7632 18.982 11.7632 18.982C11.7632 18.982 10.1679 19.9713 7.1768 19.0809C4.18559 18.1905 0.695953 17.0032 0.695953 17.0032C0.695953 17.0032 -1.6968 15.5191 2.39102 13.9361Z" fill="white"/>
</svg>
