<svg width="current" height="current" viewBox="0 0 28 28" fill="none" xmlns="http://www.w3.org/2000/svg">
<path d="M22.3039 6.84687C22.1351 6.75966 21.9709 6.66406 21.8117 6.56042C21.3488 6.2544 20.9244 5.89383 20.5476 5.48646C19.6049 4.40781 19.2528 3.31354 19.1231 2.5474H19.1283C19.02 1.91146 19.0648 1.5 19.0716 1.5H14.7778V18.1031C14.7778 18.326 14.7778 18.5464 14.7685 18.7641C14.7685 18.7911 14.7658 18.8161 14.7643 18.8453C14.7643 18.8573 14.7643 18.8698 14.7617 18.8823C14.7617 18.8854 14.7617 18.8885 14.7617 18.8917C14.7164 19.4874 14.5255 20.0628 14.2056 20.5674C13.8857 21.072 13.4468 21.4903 12.9273 21.7854C12.3859 22.0934 11.7736 22.255 11.1507 22.2542C9.15022 22.2542 7.52887 20.6229 7.52887 18.6083C7.52887 16.5937 9.15022 14.9625 11.1507 14.9625C11.5294 14.9621 11.9058 15.0217 12.2658 15.1391L12.2711 10.7672C11.178 10.626 10.0676 10.7129 9.00979 11.0223C7.952 11.3318 6.96983 11.8571 6.12522 12.5651C5.38515 13.2081 4.76297 13.9754 4.28668 14.8323C4.10543 15.1448 3.42158 16.4005 3.33876 18.4385C3.28668 19.5953 3.63408 20.7937 3.7997 21.2891V21.2995C3.90387 21.5911 4.30751 22.5865 4.96533 23.4255C5.49576 24.0986 6.12245 24.6898 6.82522 25.1802V25.1698L6.83564 25.1802C8.91428 26.5927 11.219 26.5 11.219 26.5C11.6179 26.4839 12.9544 26.5 14.4721 25.7807C16.1554 24.9833 17.1138 23.7953 17.1138 23.7953C17.726 23.0855 18.2128 22.2765 18.5533 21.4031C18.9419 20.3818 19.0716 19.1568 19.0716 18.6672V9.85885C19.1237 9.8901 19.8174 10.349 19.8174 10.349C19.8174 10.349 20.8169 10.9896 22.3763 11.4068C23.495 11.7036 25.0023 11.7661 25.0023 11.7661V7.50365C24.4742 7.56094 23.4018 7.39427 22.3039 6.84687Z" fill="white"/>
</svg>
