<svg width="1440" height="400" viewBox="0 0 1440 400" fill="none" xmlns="http://www.w3.org/2000/svg">
<path d="M116.754 91.2687C178.365 110.06 225.498 150.416 270.166 195.084C313.294 238.212 355.806 283.496 411.564 309.681C526.778 363.591 662.323 336.174 775.38 289.966C901.683 238.212 1020.29 160.582 1156.75 137.785C1223.6 126.695 1295.38 131.932 1353.6 169.515C1401.97 200.629 1428.15 249.61 1438.94 304.752C1445.1 336.174 1447.25 367.904 1448.79 399.634H1463.27C1462.96 390.7 1462.35 381.459 1461.73 372.525C1458.03 320.463 1450.95 266.245 1423.53 220.345C1392.42 168.591 1337.28 135.629 1278.75 123.615C1207.28 109.136 1133.34 122.999 1065.26 145.487C999.646 167.359 937.418 198.164 875.499 228.046C756.897 285.037 625.356 343.259 490.427 318.923C459.005 313.378 428.199 302.904 400.166 287.193C372.441 271.482 348.105 251.15 325.308 229.586C280.64 187.074 239.977 138.709 186.375 106.363C130.924 73.0933 64.384 58.3066 0.308055 65.3919H0V80.4867C39.4313 76.1739 79.1707 79.8705 116.754 91.2687Z" fill="#F3FF3D" fill-opacity="0.3"/>
<path d="M195.001 293.303C336.091 345.981 491.66 296.076 597.324 245.246C651.542 219.061 704.528 187.639 755.665 157.758C821.898 118.635 890.594 78.2791 962.372 48.3975C1032.61 19.1321 1211.28 -39.0907 1348.98 52.0943C1428.15 104.464 1483.3 201.502 1512.56 339.82C1515.33 352.758 1517.8 366.005 1520.26 379.251H1523.34C1520.88 365.696 1518.42 352.45 1515.64 339.204C1486.07 199.962 1430.62 102.616 1350.83 49.6298C1211.9 -42.4793 1032.3 16.3596 961.448 45.6251C889.054 75.8147 820.665 116.17 754.125 155.293C702.988 185.483 650.002 216.597 595.784 242.782C490.736 293.611 336.091 343.208 195.925 290.839C146.02 272.047 100.428 241.241 56.3755 211.668C37.8921 199.346 19.4086 186.715 0.309082 175.009V178.398C18.7925 189.796 36.9679 202.118 54.5271 214.132C99.1954 243.398 144.788 274.512 195.001 293.303Z" fill="#2C2C2C"/>
</svg>
